<?xml version="1.0" encoding="UTF-8"?>
<svg id="Akash_Deployments" data-name="Akash Deployments" xmlns="http://www.w3.org/2000/svg" xmlns:xlink="http://www.w3.org/1999/xlink" viewBox="0 0 128 128">
  <defs>
    <style>
      .cls-1 {
        fill: url(#Gradiente_sem_nome_9);
      }

      .cls-2 {
        fill: none;
        stroke: #fff;
        stroke-miterlimit: 10;
        stroke-width: 4px;
      }
    </style>
    <linearGradient id="Gradiente_sem_nome_9" data-name="Gradiente sem nome 9" x1="-79.5" y1="-10" x2="-79.5" y2="139" gradientUnits="userSpaceOnUse">
      <stop offset="0" stop-color="#ff454f"/>
      <stop offset="1" stop-color="#c43745"/>
    </linearGradient>
  </defs>
  <g id="Camada_3" data-name="Camada 3">
    <rect class="cls-1" x="-451" y="-10" width="743" height="149"/>
    <g>
      <circle class="cls-2" cx="44" cy="30" r="12"/>
      <circle class="cls-2" cx="44" cy="64" r="12"/>
      <circle class="cls-2" cx="44" cy="98" r="12"/>
    </g>
    <circle class="cls-2" cx="98" cy="30" r="12"/>
    <circle class="cls-2" cx="98" cy="64" r="12"/>
    <path class="cls-2" d="m56,30h30"/>
    <path class="cls-2" d="m57,64h29"/>
    <path class="cls-2" d="m56,98.42c3.16.69,5.41.25,7-.42,11.46-4.85,7.58-30.17,18-33.63,1.79-.59,3.56-.39,5,0"/>
    <path class="cls-2" d="m58,64c1.92.23,4.08.1,6-1,8.61-4.95,8.03-27.17-1-31.99-1.79-.96-3.65-1.08-5-1.01"/>
  </g>
</svg>