<?xml version="1.0" encoding="UTF-8"?>
<svg id="Akash_Deployments" data-name="Akash Deployments" xmlns="http://www.w3.org/2000/svg" viewBox="0 0 128 128">
  <defs>
    <style>
      .cls-1 {
        fill: none;
        stroke: #000;
        stroke-miterlimit: 10;
        stroke-width: 4px;
      }
    </style>
  </defs>
  <g id="Camada_3" data-name="Camada 3">
    <g>
      <rect class="cls-1" x="29" y="28" width="72" height="72" rx="4" ry="4"/>
      <rect class="cls-1" x="65" y="40" width="0" height="48"/>
      <rect class="cls-1" x="47" y="40" width="0" height="48"/>
      <rect class="cls-1" x="83" y="40" width="0" height="48"/>
      <rect class="cls-1" x="16" y="42" width="13" height="0"/>
      <rect class="cls-1" x="16" y="64" width="13" height="0"/>
      <rect class="cls-1" x="16" y="86" width="13" height="0"/>
      <rect class="cls-1" x="16" y="75" width="13" height="0"/>
      <rect class="cls-1" x="16" y="53" width="13" height="0"/>
      <rect class="cls-1" x="101" y="42" width="11" height="0"/>
      <rect class="cls-1" x="101" y="64" width="11" height="0"/>
      <rect class="cls-1" x="101" y="86" width="11" height="0"/>
      <rect class="cls-1" x="101" y="75" width="11" height="0"/>
      <line class="cls-1" x1="112" y1="53" x2="101" y2="53"/>
      <polygon class="cls-1" points="29 31 16 31 16 31 16 31 16 31 29 31 29 31 29 31 29 31"/>
      <rect class="cls-1" x="16" y="97" width="13" height="0"/>
      <rect class="cls-1" x="101" y="31" width="11" height="0"/>
      <rect class="cls-1" x="101" y="97" width="11" height="0"/>
      <g>
        <rect class="cls-1" x="37.25" y="22.25" width="11.5" height="0" transform="translate(20.75 65.25) rotate(-90)"/>
        <rect class="cls-1" x="59.25" y="22.25" width="11.5" height="0" transform="translate(42.75 87.25) rotate(-90)"/>
        <rect class="cls-1" x="81.25" y="22.25" width="11.5" height="0" transform="translate(64.75 109.25) rotate(-90)"/>
        <rect class="cls-1" x="70.25" y="22.25" width="11.5" height="0" transform="translate(53.75 98.25) rotate(-90)"/>
        <line class="cls-1" x1="54" y1="16.5" x2="54" y2="28"/>
        <rect class="cls-1" x="26.25" y="22.25" width="11.5" height="0" transform="translate(9.75 54.25) rotate(-90)"/>
        <rect class="cls-1" x="92.25" y="22.25" width="11.5" height="0" transform="translate(75.75 120.25) rotate(-90)"/>
      </g>
      <g>
        <rect class="cls-1" x="37.25" y="105.75" width="11.5" height="0" transform="translate(-62.75 148.75) rotate(-90)"/>
        <rect class="cls-1" x="59.25" y="105.75" width="11.5" height="0" transform="translate(-40.75 170.75) rotate(-90)"/>
        <rect class="cls-1" x="81.25" y="105.75" width="11.5" height="0" transform="translate(-18.75 192.75) rotate(-90)"/>
        <rect class="cls-1" x="70.25" y="105.75" width="11.5" height="0" transform="translate(-29.75 181.75) rotate(-90)"/>
        <line class="cls-1" x1="54" y1="100" x2="54" y2="111.5"/>
        <rect class="cls-1" x="26.25" y="105.75" width="11.5" height="0" transform="translate(-73.75 137.75) rotate(-90)"/>
        <rect class="cls-1" x="92.25" y="105.75" width="11.5" height="0" transform="translate(-7.75 203.75) rotate(-90)"/>
      </g>
    </g>
  </g>
</svg>