<?xml version="1.0" encoding="UTF-8"?>
<svg id="Akash_Deployments" data-name="Akash Deployments" xmlns="http://www.w3.org/2000/svg" xmlns:xlink="http://www.w3.org/1999/xlink" viewBox="0 0 128 128">
  <defs>
    <style>
      .cls-1 {
        fill: url(#Gradiente_sem_nome_9);
      }

      .cls-2 {
        fill: #fff;
      }
    </style>
    <linearGradient id="Gradiente_sem_nome_9" data-name="Gradiente sem nome 9" x1="-227.5" y1="-10" x2="-227.5" y2="139" gradientUnits="userSpaceOnUse">
      <stop offset="0" stop-color="#ff454f"/>
      <stop offset="1" stop-color="#c43745"/>
    </linearGradient>
  </defs>
  <g id="Camada_3" data-name="Camada 3">
    <rect class="cls-1" x="-599" y="-10" width="743" height="149"/>
    <g>
      <g id="krVuDv">
        <path class="cls-2" d="m100.94,48.75c-.4-.25-.53-.49-.48-.95.83-7.8-3.78-15.49-11.02-18.38-7.28-2.92-15.15-1.06-20.34,4.76,1.14,1.02,2.17,2.13,3.06,3.31,4.48-5.45,11.39-5.75,15.72-3.88,5.96,2.58,10.17,9.85,7.34,17.24,1.51.84,3.12,1.48,4.45,2.51,4.41,3.39,6.2,7.95,5.09,13.39-1.08,5.25-4.37,8.71-9.52,10.24-1.24.37-2.58.52-3.88.53-10.6.03-21.21.03-31.82.02h-1.13c.04.18.08.37.13.55.36,1.38.84,2.71,1.52,3.95h1.31c10.04.02,20.08.01,30.11-.01,5.64-.02,10.36-2.21,13.96-6.55,7-8.45,4.87-20.96-4.5-26.73Z"/>
      </g>
      <path class="cls-2" d="m50.58,51.54c.37,0,.73.03,1.09.07.7.07-.71-.13-.2-.03.18.04.36.06.54.1.35.07.7.16,1.04.26.21.06.43.13.64.2.11.04.22.08.32.12.29.12.22.09-.22-.1.27.26.82.4,1.15.61.1.06.63.32.64.43-.34-.27-.39-.3-.14-.1.1.09.2.18.3.27.2.19.38.4.58.6.48.49-.34-.54.08.1.15.23.3.47.43.71.05.09.23.6.3.62-.17-.42-.2-.47-.07-.15.04.1.07.21.11.31.09.27.16.53.23.81.04.17.07.34.1.51-.04-.36-.04-.36,0-.01.02.33.04.66.03,1,0,.08-.06,1.02-.02.54s-.08.39-.1.48c-.06.27-.13.54-.22.81-.05.15-.29.59-.26.73.19-.43.22-.51.09-.22-.03.08-.07.15-.11.23-.27.55-.58,1.08-.93,1.58-.91,1.28-.27,3.39,1.08,4.1,1.55.82,3.13.29,4.1-1.08,2.3-3.23,3.07-7.75,1.65-11.48s-4.48-6.43-8.4-7.49c-1.24-.34-2.56-.53-3.84-.55-1.57-.02-3.07,1.39-3,3s1.32,2.98,3,3h0Z"/>
      <path class="cls-2" d="m51.58,39.62c.35,0,.7.02,1.05.04.29.02.58.05.87.08.08,0,.17.03.25.03.39.02-.65-.13-.26-.03.22.05.46.07.68.11,1,.18,1.99.42,2.96.72.52.16,1.02.34,1.53.53s-.17-.09.33.14c.36.16.72.33,1.07.51,5.04,2.61,8.76,7.73,9.22,13.67.29,3.72-.49,7.31-2.3,10.59s3.31,6.41,5.18,3.03c4.03-7.28,4.27-16.24.17-23.55-3.26-5.8-9.05-9.78-15.49-11.22-1.71-.38-3.51-.66-5.27-.66-3.86,0-3.87,6,0,6h0Z"/>
      <g id="g3ITYb">
        <path class="cls-2" d="m60.11,88.98c-.33-1.09-.89-2.26-1.7-3.01-.96-.89-1.74-1.86-2.37-2.91-.84-1.39-1.42-2.91-1.83-4.5-.12-.47-.23-.95-.32-1.43-.52-2.78-.8-5.62-.93-8.44-.26-5.66-2.67-9.78-7.57-12.31-.27-.14-.55-.28-.84-.41s-.67-.36-.75-.63c-.35-1.14-.97-1.97-1.82-2.55-.52-.37-1.13-.64-1.8-.85h-1.5c-1.77.54-3.06,1.56-3.63,3.4-.08.29-.51.53-.84.67-4.36,1.95-7.09,5.26-8.01,9.93-.32,1.62-.23,3.32-.33,4.99-.21,3.45-.77,6.83-2.06,10.06-.7,1.76-1.66,3.35-3.09,4.65-1.43,1.3-2.13,2.99-2.29,4.89-.22,2.71,1.86,4.89,4.7,4.91,3.51.03,7.03.01,10.55.01h1.23c.19,2.44,1.56,3.83,3.77,4.49h1.5c2.16-.65,3.55-1.98,3.75-4.49h11.38c3.83,0,5.95-2.79,4.8-6.47Zm-37.41,1.93c.38-.74.55-1.46,1-1.87,3.42-3.19,5-7.3,5.79-11.72.52-2.92.73-5.91.87-8.88.12-2.59,1.17-4.88,2.88-6.51,1.38-1.32,3.17-2.21,5.23-2.47.51-.06,1.02-.08,1.52-.04,3.73.21,7.1,2.89,8.12,6.72.27,1.01.33,2.1.35,3.16.07,3.15.35,6.26,1.11,9.26.38,1.53.88,3.03,1.54,4.49.13.3.28.61.43.91.85,1.72,2.22,3.17,3.33,4.76.45.64.84,1.32,1.38,2.19H22.7Z"/>
      </g>
    </g>
  </g>
</svg>