<?xml version="1.0" encoding="UTF-8"?>
<svg id="Akash_Deployments" data-name="Akash Deployments" xmlns="http://www.w3.org/2000/svg" viewBox="0 0 128 128">
  <defs>
    <style>
      .cls-1 {
        fill: none;
        stroke: #fff;
        stroke-miterlimit: 10;
        stroke-width: 4px;
      }
    </style>
  </defs>
  <g id="Camada_3" data-name="Camada 3">
    <path class="cls-1" d="m112,64c0,26.51-21.49,48-48,48s-48-21.49-48-48,21.49-48,48-48c10.2,0,19.65,3.18,27.42,8.6-2.12,2.16-3.42,5.12-3.42,8.4,0,6.63,5.37,12,12,12,2.63,0,5.06-.84,7.04-2.28,3.18,6.41,4.96,13.64,4.96,21.28Z"/>
    <polygon class="cls-1" points="75.55 44 52.45 44 40.91 64 52.45 84 75.55 84 87.09 64 75.55 44"/>
    <path class="cls-1" d="m64,64l-11.55-20,11.55,20Z"/>
    <path class="cls-1" d="m52.45,84l11.55-20-11.55,20Z"/>
    <path class="cls-1" d="m87.09,64h-23.09,23.09Z"/>
    <circle class="cls-1" cx="100" cy="33" r="12"/>
  </g>
</svg>