<?xml version="1.0" encoding="UTF-8"?>
<svg id="Akash_Deployments" data-name="Akash Deployments" xmlns="http://www.w3.org/2000/svg" viewBox="0 0 128 128">
  <defs>
    <style>
      .cls-1 {
        stroke-width: 2px;
      }

      .cls-1, .cls-2 {
        fill: #fff;
      }

      .cls-1, .cls-2, .cls-3 {
        stroke: #000;
        stroke-miterlimit: 10;
      }

      .cls-2, .cls-3 {
        stroke-width: 4px;
      }

      .cls-3 {
        fill: none;
      }
    </style>
  </defs>
  <g id="Camada_3" data-name="Camada 3">
    <g>
      <g id="TfW8jN">
        <path class="cls-1" d="m25.84,37.12c0-5.73-.02-11.45.01-17.18,0-1.51.91-2.57,2.04-3.44,1.64-1.27,3.57-1.93,5.55-2.42,3.76-.93,7.57-1.15,11.42-.91,2.82.17,5.59.61,8.26,1.56,1.66.59,3.23,1.35,4.41,2.73.66.78,1.04,1.65,1.04,2.69,0,11.21,0,22.42.01,33.63,0,1.56-.66,2.75-1.82,3.7-1.67,1.38-3.67,2.07-5.73,2.58-2.52.63-5.09.93-7.69.99-3.84.09-7.63-.23-11.31-1.37-1.82-.56-3.56-1.3-4.92-2.71-.84-.87-1.28-1.89-1.28-3.13.02-5.58,0-11.16,0-16.74h0Zm2.01,8.18c0,2.83.02,5.55-.01,8.28-.01,1.08.41,1.9,1.22,2.57,1.07.87,2.32,1.36,3.62,1.74,2.22.65,4.5.95,6.81,1.08,3.78.21,7.54.06,11.24-.82,1.65-.39,3.25-.91,4.6-1.99.79-.64,1.25-1.44,1.24-2.5-.03-2.14,0-4.27,0-6.41,0-.65,0-1.31,0-1.92-1,.5-1.92,1.05-2.9,1.45-2.91,1.2-5.96,1.75-9.09,1.94-4.07.26-8.08-.06-12-1.23-1.65-.49-3.22-1.16-4.72-2.2Zm28.71-23.47c-4.47,2.67-9.35,3.41-14.38,3.41-5.02,0-9.89-.71-14.33-3.39,0,2.8.03,5.55-.02,8.29-.02.83.29,1.35.94,1.78,1.4.93,2.94,1.57,4.54,2.05,3.25.98,6.59,1.24,9.96,1.15,3.14-.08,6.2-.54,9.15-1.66,1.31-.5,2.6-1.05,3.66-1.99.23-.21.45-.58.45-.88.03-2.9.02-5.8.02-8.75Zm0,11.81c-4.43,2.76-9.31,3.51-14.34,3.52-5.04.01-9.94-.69-14.37-3.44,0,2.74.03,5.43-.02,8.12-.01.77.25,1.32.88,1.66,1.17.62,2.34,1.29,3.58,1.74,3.81,1.39,7.78,1.68,11.79,1.47,3.23-.16,6.38-.72,9.34-2.06.97-.44,1.86-1.08,2.75-1.67.2-.13.35-.48.36-.73.02-2.85.02-5.7.02-8.62Zm-13.36-18.53c-3.26-.01-5.63.16-7.99.58-1.79.32-3.54.76-5.15,1.63-.74.4-1.38.9-1.84,1.62-.18.28-.23.52.09.73.63.4,1.23.85,1.89,1.17,3.51,1.73,7.28,2.27,11.14,2.37,2.71.08,5.4-.15,8.05-.75,2.18-.49,4.29-1.18,6.17-2.41,1.01-.66,1.08-.66.19-1.67-.83-.95-1.97-1.43-3.13-1.83-3.34-1.15-6.8-1.39-9.43-1.45Z"/>
      </g>
      <g id="TfW8jN-2" data-name="TfW8jN">
        <path class="cls-1" d="m69.43,37.04c0-5.73-.02-11.45.01-17.18,0-1.51.91-2.57,2.04-3.44,1.64-1.27,3.57-1.93,5.55-2.42,3.76-.93,7.57-1.15,11.42-.91,2.82.17,5.59.61,8.26,1.56,1.66.59,3.23,1.35,4.41,2.73.66.78,1.04,1.65,1.04,2.69,0,11.21,0,22.42.01,33.63,0,1.56-.66,2.75-1.82,3.7-1.67,1.38-3.67,2.07-5.73,2.58-2.52.63-5.09.93-7.69.99-3.84.09-7.63-.23-11.31-1.37-1.82-.56-3.56-1.3-4.92-2.71-.84-.87-1.28-1.89-1.28-3.13.02-5.58,0-11.16,0-16.74h0Zm2.01,8.18c0,2.83.02,5.55-.01,8.28-.01,1.08.41,1.9,1.22,2.57,1.07.87,2.32,1.36,3.62,1.74,2.22.65,4.5.95,6.81,1.08,3.78.21,7.54.06,11.24-.82,1.65-.39,3.25-.91,4.6-1.99.79-.64,1.25-1.44,1.24-2.5-.03-2.14,0-4.27,0-6.41,0-.65,0-1.31,0-1.92-1,.5-1.92,1.05-2.9,1.45-2.91,1.2-5.96,1.75-9.09,1.94-4.07.26-8.08-.06-12-1.23-1.65-.49-3.22-1.16-4.72-2.2Zm28.71-23.47c-4.47,2.67-9.35,3.41-14.38,3.41-5.02,0-9.89-.71-14.33-3.39,0,2.8.03,5.55-.02,8.29-.02.83.29,1.35.94,1.78,1.4.93,2.94,1.57,4.54,2.05,3.25.98,6.59,1.24,9.96,1.15,3.14-.08,6.2-.54,9.15-1.66,1.31-.5,2.6-1.05,3.66-1.99.23-.21.45-.58.45-.88.03-2.9.02-5.8.02-8.75Zm0,11.81c-4.43,2.76-9.31,3.51-14.34,3.52-5.04.01-9.94-.69-14.37-3.44,0,2.74.03,5.43-.02,8.12-.01.77.25,1.32.88,1.66,1.17.62,2.34,1.29,3.58,1.74,3.81,1.39,7.78,1.68,11.79,1.47,3.23-.16,6.38-.72,9.34-2.06.97-.44,1.86-1.08,2.75-1.67.2-.13.35-.48.36-.73.02-2.85.02-5.7.02-8.62Zm-13.36-18.53c-3.26-.01-5.63.16-7.99.58-1.79.32-3.54.76-5.15,1.63-.74.4-1.38.9-1.84,1.62-.18.28-.23.52.09.73.63.4,1.23.85,1.89,1.17,3.51,1.73,7.28,2.27,11.14,2.37,2.71.08,5.4-.15,8.05-.75,2.18-.49,4.29-1.18,6.17-2.41,1.01-.66,1.08-.66.19-1.67-.83-.95-1.97-1.43-3.13-1.83-3.34-1.15-6.8-1.39-9.43-1.45Z"/>
      </g>
      <g id="TfW8jN-3" data-name="TfW8jN">
        <path class="cls-1" d="m26.43,91.04c0-5.73-.02-11.45.01-17.18,0-1.51.91-2.57,2.04-3.44,1.64-1.27,3.57-1.93,5.55-2.42,3.76-.93,7.57-1.15,11.42-.91,2.82.17,5.59.61,8.26,1.56,1.66.59,3.23,1.35,4.41,2.73.66.78,1.04,1.65,1.04,2.69,0,11.21,0,22.42.01,33.63,0,1.56-.66,2.75-1.82,3.7-1.67,1.38-3.67,2.07-5.73,2.58-2.52.63-5.09.93-7.69.99-3.84.09-7.63-.23-11.31-1.37-1.82-.56-3.56-1.3-4.92-2.71-.84-.87-1.28-1.89-1.28-3.13.02-5.58,0-11.16,0-16.74h0Zm2.01,8.18c0,2.83.02,5.55-.01,8.28-.01,1.08.41,1.9,1.22,2.57,1.07.87,2.32,1.36,3.62,1.74,2.22.65,4.5.95,6.81,1.08,3.78.21,7.54.06,11.24-.82,1.65-.39,3.25-.91,4.6-1.99.79-.64,1.25-1.44,1.24-2.5-.03-2.14,0-4.27,0-6.41,0-.65,0-1.31,0-1.92-1,.5-1.92,1.05-2.9,1.45-2.91,1.2-5.96,1.75-9.09,1.94-4.07.26-8.08-.06-12-1.23-1.65-.49-3.22-1.16-4.72-2.2Zm28.71-23.47c-4.47,2.67-9.35,3.41-14.38,3.41-5.02,0-9.89-.71-14.33-3.39,0,2.8.03,5.55-.02,8.29-.02.83.29,1.35.94,1.78,1.4.93,2.94,1.57,4.54,2.05,3.25.98,6.59,1.24,9.96,1.15,3.14-.08,6.2-.54,9.15-1.66,1.31-.5,2.6-1.05,3.66-1.99.23-.21.45-.58.45-.88.03-2.9.02-5.8.02-8.75Zm0,11.81c-4.43,2.76-9.31,3.51-14.34,3.52-5.04.01-9.94-.69-14.37-3.44,0,2.74.03,5.43-.02,8.12-.01.77.25,1.32.88,1.66,1.17.62,2.34,1.29,3.58,1.74,3.81,1.39,7.78,1.68,11.79,1.47,3.23-.16,6.38-.72,9.34-2.06.97-.44,1.86-1.08,2.75-1.67.2-.13.35-.48.36-.73.02-2.85.02-5.7.02-8.62Zm-13.36-18.53c-3.26-.01-5.63.16-7.99.58-1.79.32-3.54.76-5.15,1.63-.74.4-1.38.9-1.84,1.62-.18.28-.23.52.09.73.63.4,1.23.85,1.89,1.17,3.51,1.73,7.28,2.27,11.14,2.37,2.71.08,5.4-.15,8.05-.75,2.18-.49,4.29-1.18,6.17-2.41,1.01-.66,1.08-.66.19-1.67-.83-.95-1.97-1.43-3.13-1.83-3.34-1.15-6.8-1.39-9.43-1.45Z"/>
      </g>
      <line class="cls-3" x1="42.25" y1="59.8" x2="42.28" y2="68.09"/>
      <line class="cls-2" x1="57.21" y1="38.08" x2="70.21" y2="38.08"/>
    </g>
  </g>
</svg>