<?xml version="1.0" encoding="UTF-8"?>
<svg id="Akash_Deployments" data-name="Akash Deployments" xmlns="http://www.w3.org/2000/svg" viewBox="0 0 128 128">
  <defs>
    <style>
      .cls-1 {
        fill: none;
        stroke: #000;
        stroke-miterlimit: 10;
        stroke-width: 4px;
      }
    </style>
  </defs>
  <g id="Camada_3" data-name="Camada 3">
    <g>
      <circle class="cls-1" cx="44" cy="30" r="12"/>
      <circle class="cls-1" cx="44" cy="64" r="12"/>
      <circle class="cls-1" cx="44" cy="98" r="12"/>
    </g>
    <circle class="cls-1" cx="98" cy="30" r="12"/>
    <circle class="cls-1" cx="98" cy="64" r="12"/>
    <path class="cls-1" d="m56,30h30"/>
    <path class="cls-1" d="m57,64h29"/>
    <path class="cls-1" d="m56,98.42c3.16.69,5.41.25,7-.42,11.46-4.85,7.58-30.17,18-33.63,1.79-.59,3.56-.39,5,0"/>
    <path class="cls-1" d="m58,64c1.92.23,4.08.1,6-1,8.61-4.95,8.03-27.17-1-31.99-1.79-.96-3.65-1.08-5-1.01"/>
  </g>
</svg>